<?xml version="1.0" encoding="utf-8"?>
<!-- Generator: Adobe Illustrator 27.0.1, SVG Export Plug-In . SVG Version: 6.00 Build 0)  -->
<svg version="1.1" id="Layer_1" xmlns="http://www.w3.org/2000/svg" xmlns:xlink="http://www.w3.org/1999/xlink" x="0px" y="0px"
	 viewBox="0 0 261.1 81.4" style="enable-background:new 0 0 261.1 81.4;" xml:space="preserve">
<style type="text/css">
	.Drop_x0020_Shadow{fill:none;}
	.Round_x0020_Corners_x0020_2_x0020_pt{fill:#FFFFFF;stroke:#000000;stroke-miterlimit:10;}
	.Live_x0020_Reflect_x0020_X{fill:none;}
	.Bevel_x0020_Soft{fill:url(#SVGID_1_);}
	.Dusk{fill:#FFFFFF;}
	.Foliage_GS{fill:#FFDD00;}
	.Pompadour_GS{fill-rule:evenodd;clip-rule:evenodd;fill:#44ADE2;}
	.st0{fill:#CD8C6D;}
</style>
<linearGradient id="SVGID_1_" gradientUnits="userSpaceOnUse" x1="-5.4341" y1="-100.6723" x2="-4.727" y2="-99.9652">
	<stop  offset="0" style="stop-color:#DEDFE3"/>
	<stop  offset="0.1738" style="stop-color:#D8D9DD"/>
	<stop  offset="0.352" style="stop-color:#C9CACD"/>
	<stop  offset="0.5323" style="stop-color:#B4B5B8"/>
	<stop  offset="0.7139" style="stop-color:#989A9C"/>
	<stop  offset="0.8949" style="stop-color:#797C7E"/>
	<stop  offset="1" style="stop-color:#656B6C"/>
</linearGradient>
<g>
	<g>
		<path class="st0" d="M238.5,49.6h6.6v-1.9h-6.6v-5.1h7.3v-1.9h-9.4v16h9.6v-1.9h-7.5V49.6z M121.6,25.2h7.5l1.6,3.9h1.8l-6.6-16.1
			h-1.1l-6.3,16.1h1.7L121.6,25.2z M125.2,15.8l3.3,8h-6.4L125.2,15.8z M107.5,24.3h1.9c3.6,0,6-2.3,6-5.6c0-3.5-2.5-5.5-5.8-5.5
			h-3.8v16h1.6V24.3z M107.5,14.6h1.7c3,0,4.5,1.6,4.5,4.2c0,2.4-1.5,4-4.5,4h-1.7V14.6z M229.2,52.6l-10.7-11.8h-0.9v16h2V45
			l10.7,11.8h0.9v-16h-2V52.6z M210.5,50.2c0,3.7-1.4,4.9-4.2,4.9c-2.4,0-4.2-0.9-4.2-4.9v-9.4H200v9.4c0,5.2,2.4,6.9,6.3,6.9
			c4.3,0,6.3-1.9,6.3-6.9v-9.4h-2.1V50.2z M210.6,20.2l-0.6-0.2c-2.3-0.7-3-1.5-3-2.9c0-1.7,1.1-2.8,3.3-2.8c1.4,0,2.9,0.4,4.1,1.1
			l-0.3-1.7c-1-0.5-2.4-0.9-3.8-0.9c-3.1,0-4.9,1.6-4.9,4.3c0,2.4,1.2,3.4,4.1,4.3l0.7,0.2c2.6,0.8,3.3,1.6,3.3,3.1
			c0,2-1.4,3.1-3.8,3.1c-1.7,0-3.4-0.5-4.8-1.5l0.2,1.7c1.1,0.7,2.7,1.1,4.5,1.1c3.5,0,5.5-1.7,5.5-4.6
			C215,22.4,213.9,21.2,210.6,20.2z M164.3,40.8l-6.2,16h2.2l1.3-3.5h7.2l1.4,3.5h2.4l-6.6-16H164.3z M162.3,51.5l2.8-7.3l3,7.3
			H162.3z M187.5,40.8h-4.7v16h4.6c5.9,0,8.6-3.2,8.6-8.2C196,43.8,193.7,40.8,187.5,40.8z M187,54.9h-2.2V42.7h2.2
			c4.8,0,6.7,2.1,6.7,6C193.7,52.9,191.7,54.9,187,54.9z M156.6,25.3h7.5l1.6,3.9h1.8l-6.6-16.1h-1.1l-6.3,16.1h1.7L156.6,25.3z
			 M160.2,15.9l3.3,8h-6.4L160.2,15.9z M139.3,24.2h1.9c0.6,0,1.1,0,1.6-0.2l3.9,5h2.1l-4.4-5.6c1.7-0.9,2.8-2.6,2.8-4.8
			c0-3.5-2.4-5.5-5.8-5.5h-3.7v16h1.6V24.2z M139.3,14.6h1.7c3,0,4.5,1.6,4.5,4.2c0,2.5-1.5,4.1-4.5,4.1h-1.7V14.6z M127.9,56.8
			v-6.3l5.6-9.6h-2.2l-4.3,7.4l-4.3-7.4h-2.5l5.6,9.6v6.3H127.9z M256.2,47.7l-0.8-0.2c-2.3-0.7-2.9-1.4-2.9-2.7
			c0-1.4,0.9-2.4,3-2.4c1.4,0,3.1,0.5,4.1,1l-0.4-2.1c-1-0.4-2.4-0.8-3.9-0.8c-3.1,0-5,1.5-5,4.4c0,2.6,1.3,3.6,4.4,4.6l0.8,0.2
			c2.3,0.7,2.8,1.5,2.8,2.6c0,1.7-1.2,2.7-3.5,2.7c-1.7,0-3.5-0.5-5-1.4l0.4,2.2c1.3,0.7,2.9,1,4.5,1c3.7,0,5.8-1.8,5.8-4.7
			C260.5,50,259.4,48.8,256.2,47.7z M0,29.1v52.3h80.6V0.7H28.3C12.7,0.7,0,13.4,0,29.1z M38.8,56.7c-1.3,0-2-0.4-2.6-0.8
			c-0.4-0.3-0.7-0.5-1.4-0.5s-0.9,0.2-1.4,0.5c-0.6,0.4-1.3,0.8-2.6,0.8c-1.3,0-2-0.4-2.6-0.8c-0.4-0.3-0.7-0.5-1.4-0.5
			c-0.7,0-0.9,0.2-1.4,0.5c-0.6,0.4-1.3,0.8-2.6,0.8s-2-0.4-2.6-0.8c-0.4-0.3-0.7-0.5-1.4-0.5v-2.2c1.3,0,2,0.4,2.6,0.8
			c0.4,0.3,0.7,0.5,1.4,0.5s0.9-0.2,1.4-0.5c0.6-0.4,1.3-0.8,2.6-0.8c1.3,0,2,0.4,2.6,0.8c0.4,0.3,0.7,0.5,1.4,0.5
			c0.7,0,0.9-0.2,1.4-0.5c0.6-0.4,1.3-0.8,2.6-0.8s2,0.4,2.6,0.8c0.4,0.3,0.7,0.5,1.4,0.5V56.7z M52.4,25.9
			c9.7,14.7,0.4,28.8-0.6,30.8L50,55.4c0.1-0.1,9.3-14.3,0.9-27.7H38.1c-2.2,0-6,0.4-6.6,4.5c-0.1,0.6,0,1.2,0.1,1.7
			c1.9,10.5-2.3,16-2.5,16.3l-1.8-1.3c0.1-0.1,5.8-8.3-0.1-21.8l-0.7-1.5H52L52.4,25.9z M155.3,78.6l-2.5-4.6h-1.4v7.3h1.5v-4.2
			l2.3,4.2h0.1l2.3-4.2v4.2h1.5V74h-1.3L155.3,78.6z M145,75.4h-1.4v2.1h-1.8v1.4h1.8V81h1.4v-2.1h1.8v-1.4H145V75.4z M163.9,78.2
			h2.8v-1.1h-2.8v-1.6h3.2V74h-4.8v7.3h4.9v-1.4h-3.3V78.2z M105.9,74.9v1.7c0.8,0,1.3,0.4,1.3,1c0,0.6-0.4,1-1.3,1v1.7
			c1.6,0,2.6-0.9,2.6-2.7C108.5,75.9,107.5,74.9,105.9,74.9z M174.6,13.2H173v16h9v-1.4h-7.4V13.2z M145.8,56.8l5.9-11v11h1.9v-16
			h-1.3l-6.5,12.3l-6.5-12.3h-1.6v16h1.9v-11l5.9,11H145.8z M118.7,56.8l-6.9-9.4l5.2-6.5h-2.4l-6.8,8.6v-8.6h-2.1v16h2.1v-4.5
			l2.4-3l5.7,7.6H118.7z M117.4,77.4l-1.5-3.4h-2l2.5,4.9v2.4h1.7v-2.4l2.4-4.9h-1.8L117.4,77.4z M125.4,73.8
			c-2.2,0-3.5,1.4-3.5,3.9c0,2.5,1.2,3.8,3.4,3.8c2.1,0,3.5-1.3,3.5-3.8C128.9,75.2,127.6,73.8,125.4,73.8z M125.4,79.9
			c-1.2,0-1.8-0.7-1.8-2.3c0-1.6,0.7-2.3,1.8-2.3c1.1,0,1.8,0.7,1.8,2.3C127.2,79.2,126.5,79.9,125.4,79.9z M192.9,12.8
			c-4.3,0-7.2,3.1-7.2,8.4c0,5.4,2.8,8.2,7.1,8.2c4,0,7.3-2.8,7.3-8.3C200,15.8,197.3,12.8,192.9,12.8z M192.9,27.9
			c-3.3,0-5.6-2.2-5.6-6.8c0-4.5,2.3-6.9,5.5-6.9c3.3,0,5.5,2.6,5.5,6.9C198.4,25.7,196,27.9,192.9,27.9z M135.5,78.2
			c0,1.2-0.5,1.6-1.4,1.6c-0.8,0-1.4-0.3-1.4-1.6V74h-1.6v4.3c0,2.4,1,3.2,3,3.2c2.1,0,3.1-0.9,3.1-3.2V74h-1.6V78.2z"/>
	</g>
</g>
</svg>
